<svg width="1186" height="348" viewBox="0 0 1186 348" fill="none" xmlns="http://www.w3.org/2000/svg">
    <path d="M1140.32 108.378C1153.44 108.378 1163.08 111.002 1169.26 116.248C1175.43 121.341 1178.51 127.899 1178.51 135.924C1178.51 142.714 1176.35 147.883 1172.03 151.432C1167.87 154.982 1161.77 156.756 1153.75 156.756C1151.59 156.756 1150.12 156.525 1149.35 156.062C1148.58 155.599 1148.19 154.75 1148.19 153.516C1148.19 152.127 1148.04 150.584 1147.73 148.886C1147.57 147.034 1147.03 145.337 1146.11 143.794C1145.34 142.096 1144.02 140.707 1142.17 139.627C1140.48 138.547 1138.01 138.007 1134.77 138.007C1130.44 138.007 1126.97 139.087 1124.35 141.248C1121.73 143.254 1120.41 145.8 1120.41 148.886C1120.41 152.127 1121.73 154.75 1124.35 156.756C1127.13 158.608 1130.52 160.383 1134.53 162.08C1138.7 163.778 1143.18 165.552 1147.96 167.404C1152.74 169.102 1157.14 171.416 1161.15 174.348C1165.32 177.28 1168.72 180.984 1171.34 185.459C1174.12 189.78 1175.51 195.412 1175.51 202.357C1175.51 213.467 1171.57 222.572 1163.7 229.671C1155.83 236.769 1144.02 240.318 1128.28 240.318C1123.96 240.318 1118.95 239.933 1113.24 239.161C1107.68 238.544 1102.36 237.541 1097.27 236.152C1092.17 234.609 1087.85 232.603 1084.3 230.134C1080.91 227.665 1079.21 224.578 1079.21 220.875C1079.21 219.486 1079.44 217.788 1079.91 215.782C1080.52 213.776 1081.37 211.847 1082.45 209.995C1083.69 208.144 1085.08 206.6 1086.62 205.366C1088.32 203.977 1090.32 203.283 1092.64 203.283C1094.49 203.283 1096.19 203.746 1097.73 204.671C1099.27 205.597 1101.05 206.6 1103.05 207.681C1105.21 208.606 1107.84 209.532 1110.92 210.458C1114.01 211.384 1118.1 211.847 1123.19 211.847C1127.05 211.847 1130.44 211.384 1133.38 210.458C1136.46 209.532 1138.01 207.449 1138.01 204.208C1138.01 201.276 1136.77 198.962 1134.3 197.264C1131.83 195.412 1128.67 193.715 1124.81 192.172C1121.11 190.629 1117.02 189.008 1112.54 187.311C1108.22 185.459 1104.13 183.067 1100.28 180.135C1096.57 177.203 1093.49 173.5 1091.02 169.024C1088.55 164.395 1087.31 158.454 1087.31 151.201C1087.31 143.331 1088.86 136.695 1091.94 131.294C1095.18 125.739 1099.27 121.264 1104.21 117.869C1109.3 114.474 1115.01 112.082 1121.34 110.693C1127.67 109.15 1133.99 108.378 1140.32 108.378Z" fill="black" style="fill:black;fill-opacity:1;"/>
    <path d="M1016.28 213.236C1018.29 201.971 1019.99 192.172 1021.37 183.839C1022.92 175.351 1024.15 168.021 1025.08 161.849C1026.16 155.676 1027.01 150.352 1027.62 145.877C1028.4 141.402 1029.01 137.467 1029.48 134.072C1030.09 130.522 1030.56 127.436 1030.86 124.813C1031.33 122.035 1031.79 119.18 1032.25 116.248C1032.56 114.551 1033.33 113.239 1034.57 112.313C1035.96 111.387 1038.5 110.924 1042.21 110.924C1044.21 110.924 1046.99 111.079 1050.54 111.387C1054.24 111.542 1057.87 112.082 1061.42 113.008C1064.97 113.934 1067.98 115.4 1070.45 117.406C1073.07 119.257 1074.38 121.881 1074.38 125.276C1074.38 127.745 1073.69 131.448 1072.3 136.386C1070.91 141.17 1069.13 146.726 1066.97 153.053C1064.81 159.38 1062.35 166.17 1059.57 173.422C1056.79 180.521 1053.93 187.619 1051 194.718C1048.23 201.662 1045.52 208.298 1042.9 214.625C1040.28 220.952 1038.04 226.43 1036.19 231.059C1034.95 233.837 1033.72 235.689 1032.48 236.615C1031.4 237.541 1029.4 238.004 1026.47 238.004H1012.81C1008.49 238.004 1004.94 237.464 1002.16 236.383C999.384 235.303 997.147 233.837 995.449 231.985C993.752 230.134 992.44 228.05 991.514 225.736C990.588 223.266 989.894 220.643 989.431 217.865C987.888 209.995 986.267 199.425 984.57 186.153C982.872 172.882 981.329 157.219 979.94 139.164C979.169 142.559 978.243 147.111 977.163 152.821C976.237 158.531 975.157 164.703 973.922 171.339C972.842 177.975 971.684 184.765 970.45 191.709C969.215 198.653 968.058 205.134 966.978 211.153C965.898 217.017 964.895 222.109 963.969 226.43C963.043 230.596 962.271 233.297 961.654 234.532C960.882 236.075 959.879 237.078 958.645 237.541C957.564 237.849 955.944 238.004 953.784 238.004H937.581C933.568 238.004 930.096 237.464 927.164 236.383C924.387 235.149 921.918 233.606 919.757 231.754C917.751 229.902 916.053 227.819 914.665 225.504C913.43 223.035 912.504 220.489 911.887 217.865C903.4 184.842 896.995 159.92 892.675 143.099C888.508 126.279 886.425 117.251 886.425 116.017C886.425 114.628 887.119 113.393 888.508 112.313C889.897 111.233 891.672 110.693 893.832 110.693C900.468 110.693 906.177 111.002 910.961 111.619C915.745 112.082 919.68 113.008 922.766 114.396C926.007 115.785 928.476 117.714 930.173 120.183C931.871 122.652 932.951 125.893 933.414 129.905C933.568 132.066 933.877 136.464 934.34 143.099C934.803 149.735 935.266 157.296 935.729 165.784C936.346 174.117 936.886 182.604 937.349 191.246C937.966 199.888 938.506 207.218 938.969 213.236C940.821 203.668 942.287 196.03 943.367 190.32C944.602 184.61 945.605 179.826 946.377 175.969C947.148 172.111 947.765 168.716 948.228 165.784C948.846 162.852 949.54 159.38 950.312 155.367C951.083 151.355 951.932 146.34 952.858 140.322C953.938 134.303 955.404 126.279 957.256 116.248C957.873 112.545 961.962 110.693 969.524 110.693C974.308 110.693 978.783 110.847 982.949 111.156C987.116 111.464 990.82 112.236 994.06 113.471C997.301 114.551 1000.08 116.248 1002.39 118.563C1004.71 120.723 1006.33 123.733 1007.25 127.59C1007.56 128.671 1007.79 129.751 1007.95 130.831C1008.26 131.911 1008.57 133.454 1008.87 135.461C1009.18 137.467 1009.49 140.244 1009.8 143.794C1010.26 147.343 1010.73 152.127 1011.19 158.145C1011.81 164.163 1012.5 171.648 1013.27 180.598C1014.04 189.548 1015.05 200.428 1016.28 213.236Z" fill="black" style="fill:black;fill-opacity:1;"/>
    <path d="M822.486 240.318C815.696 240.318 808.906 239.47 802.116 237.772C795.48 236.075 789.462 233.143 784.061 228.976C778.814 224.81 774.493 219.254 771.098 212.31C767.703 205.366 766.006 196.647 766.006 186.153C766.006 182.296 766.314 177.666 766.932 172.265C767.549 166.864 768.706 161.309 770.404 155.599C772.256 149.889 774.725 144.257 777.811 138.701C781.052 132.992 785.218 127.899 790.311 123.424C795.403 118.949 801.576 115.322 808.829 112.545C816.081 109.767 824.723 108.378 834.754 108.378C842.778 108.378 849.568 109.304 855.123 111.156C860.679 113.008 865.154 115.554 868.549 118.795C871.944 121.881 874.413 125.507 875.956 129.674C877.499 133.84 878.271 138.316 878.271 143.099C878.271 150.198 876.805 156.216 873.873 161.154C871.095 166.092 867.392 170.259 862.762 173.654C858.287 176.895 853.272 179.441 847.716 181.293C842.161 183.144 836.683 184.61 831.282 185.691C825.88 186.616 820.865 187.234 816.236 187.542C811.761 187.697 808.288 187.774 805.819 187.774C805.819 190.706 806.205 193.638 806.977 196.57C807.903 199.348 809.214 201.817 810.912 203.977C812.609 206.137 814.847 207.912 817.625 209.301C820.402 210.69 823.797 211.384 827.809 211.384C831.822 211.384 834.908 210.767 837.068 209.532C839.383 208.144 841.235 206.678 842.624 205.134C844.013 203.437 845.17 201.971 846.096 200.736C847.176 199.348 848.565 198.653 850.262 198.653C851.034 198.653 852.346 198.885 854.198 199.348C856.204 199.656 858.21 200.428 860.216 201.662C862.222 202.897 863.997 204.594 865.54 206.755C867.083 208.915 867.854 211.693 867.854 215.088C867.854 219.563 866.466 223.421 863.688 226.661C860.91 229.902 857.284 232.525 852.809 234.532C848.488 236.538 843.627 238.004 838.226 238.93C832.825 239.855 827.578 240.318 822.486 240.318ZM826.884 139.164C823.489 139.164 820.557 140.167 818.088 142.173C815.773 144.025 813.767 146.417 812.069 149.349C810.526 152.281 809.292 155.522 808.366 159.071C807.594 162.62 806.977 166.015 806.514 169.256C816.081 169.102 823.797 167.481 829.661 164.395C835.68 161.309 838.689 156.911 838.689 151.201C838.689 148.115 837.686 145.337 835.68 142.868C833.828 140.399 830.896 139.164 826.884 139.164Z" fill="black" style="fill:black;fill-opacity:1;"/>
    <path d="M704.632 217.634C704.632 214.239 704.864 209.841 705.327 204.44C705.944 198.885 706.484 193.098 706.947 187.079C707.564 180.907 708.104 174.966 708.567 169.256C709.185 163.546 709.493 158.762 709.493 154.904C709.493 150.892 708.49 147.343 706.484 144.257C704.632 141.016 700.929 139.396 695.373 139.396C689.972 139.396 685.497 140.707 681.948 143.331C678.399 145.954 675.39 150.738 672.92 157.682C670.606 164.626 668.677 174.194 667.134 186.385C665.59 198.576 664.124 214.239 662.736 233.374C662.581 235.226 662.196 236.461 661.578 237.078C660.961 237.695 659.649 238.004 657.643 238.004H649.31C644.526 238.004 640.591 237.541 637.505 236.615C634.573 235.535 632.181 234.069 630.329 232.217C628.632 230.365 627.397 228.127 626.626 225.504C626.008 222.726 625.7 219.563 625.7 216.014C625.7 213.699 625.777 210.458 625.931 206.292C626.24 201.971 626.703 196.107 627.32 188.7C627.937 181.138 628.632 171.648 629.403 160.228C630.329 148.655 631.409 134.38 632.644 117.406C632.798 114.011 633.184 112.005 633.801 111.387C634.264 110.924 635.499 110.693 637.505 110.693H646.532C651.162 110.693 654.943 111.233 657.875 112.313C660.961 113.393 663.43 114.859 665.282 116.711C667.134 118.409 668.445 120.492 669.217 122.961C669.988 125.276 670.451 127.668 670.606 130.137C675.39 121.958 680.868 116.325 687.04 113.239C693.213 109.998 700.929 108.378 710.188 108.378C716.669 108.378 722.302 109.073 727.085 110.461C731.869 111.85 735.804 114.242 738.891 117.637C742.131 120.878 744.523 125.199 746.066 130.6C747.609 135.846 748.381 142.405 748.381 150.275C748.381 152.744 748.227 156.293 747.918 160.923C747.609 165.552 747.224 170.645 746.761 176.2C746.298 181.601 745.758 187.311 745.14 193.329C744.677 199.193 744.214 204.671 743.752 209.764C743.289 214.856 742.903 219.331 742.594 223.189C742.286 227.047 742.131 229.593 742.131 230.828C742.131 234.223 741.745 236.306 740.974 237.078C740.202 237.695 738.505 238.004 735.881 238.004H728.474C723.536 238.004 719.524 237.541 716.438 236.615C713.351 235.689 710.959 234.377 709.262 232.68C707.564 230.982 706.33 228.899 705.558 226.43C704.941 223.807 704.632 220.875 704.632 217.634Z" fill="black" style="fill:black;fill-opacity:1;"/>
    <path d="M585.892 196.801C592.373 196.801 597.003 198.422 599.78 201.662C602.558 204.749 603.947 209.147 603.947 214.856C603.947 217.171 603.638 219.872 603.021 222.958C602.404 225.89 601.246 228.668 599.549 231.291C598.006 233.76 595.768 235.92 592.836 237.772C589.904 239.47 586.046 240.318 581.262 240.318C574.164 240.318 569.38 238.544 566.911 234.994C564.442 231.291 563.207 226.739 563.207 221.338C563.207 218.251 563.593 215.242 564.365 212.31C565.136 209.378 566.371 206.755 568.068 204.44C569.766 202.125 572.08 200.273 575.012 198.885C577.944 197.496 581.571 196.801 585.892 196.801Z" fill="black" style="fill:black;fill-opacity:1;"/>
    <path d="M469.137 240.318C463.118 240.318 457.332 239.238 451.776 237.078C446.375 234.917 441.591 231.522 437.425 226.893C433.413 222.263 430.172 216.399 427.703 209.301C425.388 202.202 424.231 193.638 424.231 183.607C424.231 179.132 424.539 174.194 425.157 168.793C425.774 163.238 426.854 157.682 428.397 152.127C429.94 146.571 432.101 141.17 434.879 135.924C437.656 130.677 441.128 126.047 445.295 122.035C449.616 117.869 454.708 114.551 460.572 112.082C466.59 109.613 473.612 108.378 481.636 108.378C489.352 108.378 495.525 109.767 500.154 112.545C504.938 115.168 507.947 119.798 509.182 126.433C509.49 120.415 509.799 115.168 510.108 110.693C510.416 106.218 510.648 102.051 510.802 98.1934C511.111 94.3355 511.419 90.4776 511.728 86.6197C512.037 82.7618 512.345 78.3637 512.654 73.4256C512.808 70.0307 513.194 68.0246 513.811 67.4073C514.12 67.0987 514.506 66.9444 514.969 66.9444C515.432 66.79 516.28 66.7129 517.515 66.7129H526.542C531.172 66.7129 535.03 67.253 538.116 68.3332C541.202 69.4134 543.671 70.8794 545.523 72.7312C547.375 74.583 548.687 76.7434 549.458 79.2125C550.23 81.5272 550.616 83.9963 550.616 86.6197C550.616 86.6197 550.461 88.5486 550.153 92.4065C549.844 96.2644 549.458 101.434 548.995 107.915C548.532 114.242 547.992 121.495 547.375 129.674C546.758 137.853 546.14 146.34 545.523 155.136C544.906 163.778 544.289 172.419 543.671 181.061C543.054 189.548 542.437 197.419 541.82 204.671C541.202 211.77 540.662 217.943 540.199 223.189C539.891 228.282 539.659 231.677 539.505 233.374C539.196 235.226 538.81 236.461 538.347 237.078C537.884 237.695 536.573 238.004 534.412 238.004H526.079C522.839 238.004 519.752 237.772 516.82 237.309C514.043 236.692 511.574 235.766 509.413 234.532C507.407 233.143 505.787 231.368 504.552 229.208C503.472 226.893 502.932 223.961 502.932 220.412C500.154 226.276 495.911 231.06 490.201 234.763C484.645 238.467 477.624 240.318 469.137 240.318ZM489.275 139.164C481.405 139.164 475.541 142.636 471.683 149.581C467.979 156.371 466.128 165.552 466.128 177.126C466.128 181.138 466.359 185.073 466.822 188.931C467.439 192.789 468.442 196.261 469.831 199.348C471.22 202.434 473.072 204.903 475.387 206.755C477.856 208.607 480.942 209.532 484.645 209.532C491.281 209.532 496.836 206.292 501.312 199.811C505.787 193.329 508.024 183.144 508.024 169.256C508.024 165.398 507.793 161.694 507.33 158.145C506.867 154.442 505.941 151.201 504.552 148.423C503.163 145.646 501.234 143.408 498.765 141.71C496.296 140.013 493.133 139.164 489.275 139.164Z" fill="black" style="fill:black;fill-opacity:1;"/>
    <path d="M340.285 240.318C329.637 240.318 320.764 238.852 313.666 235.92C306.721 232.834 301.166 228.668 296.999 223.421C292.833 218.174 289.901 212.079 288.203 205.134C286.506 198.036 285.657 190.474 285.657 182.45C285.657 173.191 286.737 164.163 288.898 155.367C291.213 146.417 295.071 138.47 300.472 131.526C305.873 124.581 312.971 119.026 321.767 114.859C330.718 110.539 341.828 108.378 355.099 108.378C374.543 108.378 388.432 113.162 396.765 122.73C405.252 132.143 409.496 145.414 409.496 162.543C409.496 167.327 409.11 172.651 408.339 178.515C407.721 184.225 406.41 189.934 404.403 195.644C402.552 201.354 399.928 206.909 396.533 212.31C393.293 217.711 389.126 222.495 384.034 226.661C378.941 230.828 372.769 234.146 365.516 236.615C358.417 239.084 350.007 240.318 340.285 240.318ZM351.164 139.164C345.3 139.164 340.594 140.707 337.044 143.794C333.65 146.726 331.026 150.352 329.174 154.673C327.477 158.84 326.32 163.315 325.702 168.099C325.239 172.728 325.008 176.663 325.008 179.904C325.008 190.089 326.628 197.573 329.869 202.357C333.109 207.14 337.739 209.532 343.757 209.532C349.158 209.532 353.556 207.835 356.951 204.44C360.501 201.045 363.201 196.956 365.053 192.172C367.059 187.388 368.371 182.373 368.988 177.126C369.759 171.879 370.145 167.481 370.145 163.932C370.145 156.216 368.679 150.198 365.747 145.877C362.97 141.402 358.109 139.164 351.164 139.164Z" fill="black" style="fill:black;fill-opacity:1;"/>
    <path d="M201.943 240.318C191.295 240.318 182.422 238.852 175.324 235.92C168.379 232.834 162.824 228.668 158.657 223.421C154.491 218.174 151.559 212.079 149.861 205.134C148.164 198.036 147.315 190.474 147.315 182.45C147.315 173.191 148.395 164.163 150.556 155.367C152.871 146.417 156.728 138.47 162.13 131.526C167.531 124.581 174.629 119.026 183.425 114.859C192.375 110.539 203.486 108.378 216.757 108.378C236.201 108.378 250.09 113.162 258.423 122.73C266.91 132.143 271.154 145.414 271.154 162.543C271.154 167.327 270.768 172.651 269.996 178.515C269.379 184.225 268.068 189.934 266.061 195.644C264.21 201.354 261.586 206.909 258.191 212.31C254.951 217.711 250.784 222.495 245.692 226.661C240.599 230.828 234.427 234.146 227.174 236.615C220.075 239.084 211.665 240.318 201.943 240.318ZM212.822 139.164C206.958 139.164 202.252 140.707 198.702 143.794C195.307 146.726 192.684 150.352 190.832 154.673C189.135 158.84 187.977 163.315 187.36 168.099C186.897 172.728 186.666 176.663 186.666 179.904C186.666 190.089 188.286 197.573 191.527 202.357C194.767 207.14 199.397 209.532 205.415 209.532C210.816 209.532 215.214 207.835 218.609 204.44C222.158 201.045 224.859 196.956 226.711 192.172C228.717 187.388 230.029 182.373 230.646 177.126C231.417 171.879 231.803 167.481 231.803 163.932C231.803 156.216 230.337 150.198 227.405 145.877C224.628 141.402 219.767 139.164 212.822 139.164Z" fill="black" style="fill:black;fill-opacity:1;"/>
    <path d="M85.1825 210.69C81.3246 217.634 76.618 222.804 71.0626 226.199C65.5072 229.439 58.563 231.059 50.2299 231.059C43.903 231.059 38.1161 230.056 32.8694 228.05C27.6226 226.044 23.1474 222.881 19.4439 218.56C15.7403 214.239 12.8083 208.838 10.6478 202.357C8.64173 195.721 7.63867 187.851 7.63867 178.746C7.63867 171.339 8.41025 163.546 9.95341 155.367C11.4966 147.034 14.2743 139.396 18.2865 132.451C22.453 125.507 28.0856 119.798 35.1841 115.322C42.2826 110.693 51.3873 108.378 62.498 108.378C67.1275 108.378 71.0626 108.918 74.3032 109.998C77.6982 110.924 80.553 112.236 82.8678 113.934C85.3368 115.631 87.2658 117.637 88.6546 119.952C90.1978 122.267 91.3551 124.736 92.1267 127.359C92.1267 127.513 92.1267 126.973 92.1267 125.739C92.281 124.35 92.4354 122.807 92.5897 121.109C92.744 119.412 92.8212 117.791 92.8212 116.248C92.9755 114.551 93.0526 113.471 93.0526 113.008C93.2069 111.464 94.21 110.693 96.0618 110.693H106.71C114.734 110.693 120.521 112.39 124.07 115.785C127.774 119.026 129.626 125.276 129.626 134.535C129.626 135.769 129.548 138.624 129.394 143.099C129.24 147.42 128.931 152.667 128.468 158.84C128.16 165.012 127.697 171.879 127.079 179.441C126.462 186.848 125.768 194.332 124.996 201.894C124.224 209.455 123.376 216.708 122.45 223.652C121.524 230.597 120.521 236.692 119.441 241.939C118.36 247.186 116.509 252.278 113.885 257.216C111.262 262.154 107.558 266.552 102.775 270.41C97.9907 274.268 91.8181 277.354 84.2566 279.669C76.8494 281.984 67.7448 283.141 56.9427 283.141C48.7639 283.141 41.5882 282.37 35.4156 280.826C29.3972 279.283 24.382 277.2 20.3698 274.577C16.3575 272.108 13.2712 269.253 11.1108 266.012C9.10467 262.771 8.10162 259.531 8.10162 256.29C8.10162 253.358 8.71888 250.812 9.95341 248.651C11.1879 246.491 12.8083 244.716 14.8144 243.328C16.8205 241.939 18.9809 240.859 21.2956 240.087C23.7647 239.47 26.0794 239.161 28.2399 239.161C30.8632 239.161 32.7922 239.933 34.0267 241.476C35.2613 243.019 36.6501 244.716 38.1933 246.568C39.7364 248.574 41.8968 250.349 44.6745 251.892C47.4522 253.435 51.7731 254.207 57.6371 254.207C67.8219 254.207 74.9205 250.426 78.9327 242.865C83.0992 235.457 85.1825 224.732 85.1825 210.69ZM65.7387 200.273C71.2941 200.273 75.6149 198.962 78.7012 196.338C81.9419 193.715 84.4109 190.551 86.1084 186.848C87.8059 183.144 88.8861 179.286 89.349 175.274C89.812 171.262 90.0435 167.79 90.0435 164.858C90.0435 155.599 88.5775 149.04 85.6454 145.183C82.8678 141.17 78.6241 139.164 72.9144 139.164C67.2047 139.164 62.7295 140.707 59.4889 143.794C56.2482 146.88 53.7792 150.584 52.0817 154.904C50.5385 159.071 49.5355 163.315 49.0725 167.636C48.6096 171.802 48.3781 175.043 48.3781 177.357C48.3781 185.073 49.6898 190.86 52.3132 194.718C54.9366 198.422 59.4117 200.273 65.7387 200.273Z" fill="black" style="fill:black;fill-opacity:1;"/>
    <path d="M219.59 250.545C223.606 249.845 227.442 248.874 231.08 247.612C239.456 244.756 246.933 240.802 253.292 235.599C259.372 230.624 264.444 224.836 268.417 218.242C271.327 213.6 273.77 208.809 275.723 203.872C275.971 205.116 276.241 206.35 276.534 207.575L276.541 207.604L276.548 207.634C278.629 216.146 282.288 223.84 287.603 230.533C293.126 237.488 300.32 242.77 308.793 246.536L308.939 246.601L309.086 246.661C314.784 249.015 321.107 250.516 327.938 251.301L321.999 253.12C299.458 260.024 281.128 277.596 273.319 299.786L267.617 315.991L263.012 296.225C258.309 276.037 244.222 259.895 224.91 252.565L219.59 250.545Z" fill="#E27918" style="fill:#E27918;fill:color(display-p3 0.8863 0.4745 0.0941);fill-opacity:1;"/>
    <path fill-rule="evenodd" clip-rule="evenodd" d="M209.001 184.998C215.077 184.998 220.001 180.073 220.001 173.998C220.001 167.923 215.077 162.998 209.001 162.998C202.926 162.998 198.001 167.923 198.001 173.998C198.001 180.073 202.926 184.998 209.001 184.998ZM347.001 184.998C353.077 184.998 358.001 180.073 358.001 173.998C358.001 167.923 353.077 162.998 347.001 162.998C340.926 162.998 336.001 167.923 336.001 173.998C336.001 180.073 340.926 184.998 347.001 184.998Z" fill="black" style="fill:black;fill-opacity:1;"/>
    <path d="M372.176 88.5974C373.207 74.9356 344.519 54.5751 287.313 54.072C230.106 53.5688 197.691 72.227 197.691 87.5974C197.691 95.2989 205.512 96.1499 211.743 96.1249C213.31 96.0632 214.895 96.0312 216.499 96.0281C216.587 96.0274 216.674 96.027 216.758 96.027C237.78 96.027 255.805 101.162 267.404 114.418C267.898 114.969 268.38 115.528 268.849 116.095C274.762 123.241 278.683 131.703 280.901 141.177C283.493 134.94 286.855 129.137 291.001 123.808C294.101 119.822 297.627 116.246 301.549 113.069V113.068C306.057 109.417 311.087 106.293 316.592 103.682C327.611 98.3722 340.618 96.027 355.1 96.027C355.167 96.027 355.234 96.0274 355.302 96.028C357.704 96.0317 360.066 96.1028 362.384 96.2456C367.098 96.1164 371.706 94.8216 372.176 88.5974Z" fill="black" style="fill:black;fill-opacity:1;"/>
    <path fill-rule="evenodd" clip-rule="evenodd" d="M287.091 58.0261C286.795 57.4096 286.326 56.4831 285.733 55.3133C280.265 44.5256 264.307 13.0418 277.096 13.0417C285.625 13.0417 287.092 42.1134 287.091 58.0261ZM277.419 52.8357L277.419 52.8353C265.723 43.3499 255.259 34.8638 259.681 31.6342C264.83 27.8742 274.384 37.2548 283.221 57.5714C281.294 55.9785 279.34 54.3936 277.419 52.8357ZM292.077 31.0078C291.602 38.5325 291 48.0487 288.887 58.6628C300.852 45.5276 308.108 16.4765 298.909 13.7977C293.269 12.1551 292.831 19.0788 292.077 31.0078Z" fill="black" style="fill:black;fill-opacity:1;"/>
</svg>
